/* XPM */
static char *ade21b24fbf74455b558e6d0b82c9c0e1ys6m5OEqqfzaqrg[] = {
/* columns rows colors chars-per-pixel */
"32 32 188 2 ",
"   c #2A1900",
".  c #3B2600",
"X  c #3D2900",
"o  c #4C3500",
"O  c #4F3800",
"+  c #543B00",
"@  c #583E00",
"#  c #533D08",
"$  c #5C4201",
"%  c #5D4815",
"&  c #614501",
"*  c #6D4F02",
"=  c #6C5109",
"-  c #7B5F12",
";  c #594721",
":  c #695D4A",
">  c #8D6B04",
",  c #866B0E",
"<  c #876709",
"1  c #91710A",
"2  c #8B6F1D",
"3  c #8F752B",
"4  c #9D831D",
"5  c #AC8504",
"6  c #A4820D",
"7  c #AC870C",
"8  c #B68E07",
"9  c #BC9408",
"0  c #A58411",
"q  c #B18C15",
"w  c #BC9C2B",
"e  c #B7A033",
"r  c #C29906",
"t  c #CB9B03",
"y  c #C49A09",
"u  c #C39C12",
"i  c #CFA006",
"p  c #CEA20B",
"a  c #D2A206",
"s  c #D7A807",
"d  c #D3A50B",
"f  c #D6A80C",
"g  c #DCAD0B",
"h  c #CBA311",
"j  c #C4A31E",
"k  c #D4A811",
"l  c #DFB210",
"z  c #DEB318",
"x  c #E5B50C",
"c  c #EABA0E",
"v  c #E5B816",
"b  c #ECBD12",
"n  c #E3B718",
"m  c #E5BB1A",
"M  c #EBBF1F",
"N  c #E2B513",
"B  c #CCAB28",
"V  c #DDB722",
"C  c #CBB438",
"Z  c #D5BC37",
"A  c #E8BE21",
"S  c #E5BE28",
"D  c #EFC114",
"F  c #EFC31C",
"G  c #F1C316",
"H  c #F4C71A",
"J  c #F5CA1D",
"K  c #F9CC1E",
"L  c #DEC334",
"P  c #EBC220",
"I  c #EFC825",
"U  c #E4C12A",
"Y  c #EDC52B",
"T  c #EBC72A",
"R  c #F6CC23",
"E  c #FCCF20",
"W  c #F2C929",
"Q  c #FDD323",
"!  c #FADB26",
"~  c #F4D12A",
"^  c #FED629",
"/  c #FDDB2C",
"(  c #E9C432",
")  c #EFC836",
"_  c #E5C23A",
"`  c #E7C736",
"'  c #F3CE37",
"]  c #EED33C",
"[  c #F3D233",
"{  c #FEDC34",
"}  c #F2D43A",
"|  c #F5D93D",
" . c #FADD3C",
".. c #FBE02E",
"X. c #FBE134",
"o. c #FFE23C",
"O. c #98875D",
"+. c #B0984E",
"@. c #9C8C63",
"#. c #928774",
"$. c #A1926F",
"%. c #B1A27C",
"&. c #CCB740",
"*. c #C7B84D",
"=. c #D4B653",
"-. c #CFC04C",
";. c #DFC841",
":. c #E1CF4D",
">. c #F4DA47",
",. c #F5D747",
"<. c #E8C855",
"1. c #EFDD52",
"2. c #F7D750",
"3. c #F7D759",
"4. c #F7DF5B",
"5. c #F8DE54",
"6. c #E7D247",
"7. c #FFE643",
"8. c #FFE846",
"9. c #FDE54C",
"0. c #FFEA4A",
"q. c #FDE653",
"w. c #FFEC53",
"e. c #FEED5C",
"r. c #D7C075",
"t. c #F5D869",
"y. c #EED578",
"u. c #F2DA7F",
"i. c #FDED61",
"p. c #F2E768",
"a. c #F5EB6C",
"s. c #F8EC6A",
"d. c #FEF165",
"f. c #FDF26C",
"g. c #F6E176",
"h. c #FAE67A",
"j. c #F9E779",
"k. c #FCF373",
"l. c #BCB196",
"z. c #C3B281",
"x. c #E6CF83",
"c. c #EFDA8F",
"v. c #E9D58E",
"b. c #F6DF80",
"n. c #F1DB88",
"m. c #F1DD93",
"M. c #F8E886",
"N. c #FFF189",
"B. c #FDEF90",
"V. c #F6E49E",
"C. c #FAE89D",
"Z. c #FEF294",
"A. c #D0CABC",
"S. c #EBDCA4",
"D. c #E6D8A8",
"F. c #EEDFA8",
"G. c #F5E4A1",
"H. c #F7E8A7",
"J. c #F3E6B4",
"K. c #F4E9B9",
"L. c #FEF5B2",
"P. c #D6D2C6",
"I. c #DED9CC",
"U. c #E2DED4",
"Y. c #EFE6C4",
"T. c #EAE6DB",
"R. c #EBE6D8",
"E. c #F3EFDF",
"W. c #F6F0D7",
"Q. c #F7F5DF",
"!. c #F8F4DF",
"~. c #EEEEEE",
"^. c #EBE8E1",
"/. c #F1EFE5",
"(. c #F0EFEB",
"). c #F6F3E2",
"_. c #F3F2EC",
"`. c #F8F5E0",
"'. c #F4F4F4",
"]. c #F8F7F6",
"[. c #F9F8F4",
"{. c #F8F8F8",
"}. c #F9F9F9",
"|. c #FAFAFA",
" X c gray99",
".X c #FDFDFD",
"XX c #FEFEFE",
"oX c #FAFAFA",
/* pixels */
"XX'.'.XX'.{.{.'.XX'.'.XX'.{.{.~.XX'.'.XX'.{.{.'.XX'.'.XX'.{.{.~.",
"'.{.{.'.{.'.'.{.'.{.{.'.[.`.Q.)./._.'.'.{.'.'.{.'.{.{.'.{.'.'.{.",
"'.{.{.'.{.'.'.{.'.{.!.M.e.0.w.e.j.M.<.<.m.E.'.{.'.{.{.'.{.'.'.{.",
"XX'.'.XX'.{.{.'.|.H.7.o.o.7.8.8.8.w.N.t.b A c./.XX'.'.XX'.{.{.'.",
"'.{.{.'.XX'.'.XXG.{ { o.o.o.7.7.8.8.0.Z.b.b b y._.{.{.'.XX'.'.XX",
"{.'.'.{.'.'.{.K.{ / { j 4 e C Z Z 7.8.8.N.t.D b y.'.'.{.'.{.{.'.",
"{.'.'.{.'.{._.,.^ ~ , *.k.k.k.k.a.&.| 7.8.L.~ G b F.'.{.'.{.{.'.",
"'.{.{.'.XX'.u.Q I , -.f.f.p.p.a.k.k.:. .7.e.C.R G Y _.'.XX'.'.XX",
"XX'.'.XX'.).Q Q 6 C w.e.;.< B L k.k.k.6.o.7.B.2.I F n.XX'.{.{.'.",
"'.{.{.'.{.V.Q n 0 { o.7.>.d X.7.f.f.k.p.] o.q.j.W P ( '.{.'.'.{.",
"'.{.{.'.{.3.Q 9 m Q / { | d X.o.i.d.f.f.1.o.o.j.Y A n Y.{.'.'.{.",
"XX'.'.XX(.Q K 8 Q Q Q / } d ..o.w.e.i.d.i.{ o.i.( z g x.'.{.{.'.",
"'.{.{.'.W.Q H h Q Q Q Q } d ..X.8.w.w.e.e.| { 9._ d t =.{.'.'.XX",
"{.'.'.{.J.Q F n Q Q Q ^ [ a / / o.7.0.w.w. .{ o.L 9 8 w ^.{.{.'.",
"{.'.'.{.V.Q J H Q Q Q / W a / / o.o.7.8.8. .{ { V 5 5 0 R.{.{.'.",
"~.{.{.'.C.Q { K K Q Q ^ I i / / o.o.o.7.7. .{ { h > > < R.'.'.XX",
"XX'.'.XXm.K 9.J G H J Q P t ! / o.o.o.o.o.{ { { 7 $ @ @ P.{.{.~.",
"'.{.{.'.G.H q.R c b D H m r ! / { { o.o.o.{ { { 1 O O # U.'.'.{.",
"'.{.{.'.J.G 5.} x c c b v r ! Q Q ^ { { o.{ { [ * . X ; ^.'.'.{.",
"XX'.'.XXR.b ' 4.g g x x l r ! J H K Q ^ / / { U o     : ~.{.{.'.",
"'.{.{.'.{.M F j.g s s g g r Q J G G H K Q ^ / j o . . #.XX'.'.XX",
"{.'.'.{.'.<.b g.S a a a f r Q J c b G H K Q Q 1 + O O A.'.{.{.'.",
"{.'.'.{.'.S.c ) g.a t t f r Q J x c b G K K F $ O O % ].'.{.{.'.",
"'.{.{.'.XX/.n b g.( t t _ >.o.~ g x c G H J 0 O @ $ $.'.XX'.'.XX",
"XX'.'.XX'.{.v.c M M.S t t d k f s g b H H n o $ $ = T.XX'.{.{.'.",
"'.{.{.'.{.'._._ c b h.U t t t t a b H G H , @ $ & l.{.'.{.'.'.{.",
"'.{.{.'.{.'.'.Y.v c c ,.2.] U U J G D G u o & & @.'.'.'.{.'.'.{.",
"XX'.'.XX'.{.{.'.S.N c c c c c b b b D 7 o & & O.].'.'.XX'.{.{.'.",
"'.{.{.'.XX'.'.XX_.D.V c c c c c b b 6 $ * - %._.'.{.{.'.XX'.'.XX",
"{.'.'.{.'.{.{.'.{.'.T.r.B k p y q 2 3 +.z.T.{.'.{.'.'.{.'.{.{.'.",
"{.'.'.{.'.{.{.'.{.'.'.{._.U.P.I.T./.'.{.'.{.{.'.{.'.'.{.'.{.{.'.",
"~.{.{.'.XX'.'.XX'.{.{.'.XX'.'.XX~.{.{.'.XX'.'.XX'.{.{.'.XX'.'.XX"
};
