/* XPM */
static char *_b5e30a914c14903fbad6f6a50f0a5d1DqJuV8sVJ8c3tgzt[] = {
/* columns rows colors chars-per-pixel */
"32 32 206 2 ",
"   c #D4D9D4",
".  c #ADBAAD",
"X  c #B1BEB1",
"o  c #ACB8AC",
"O  c #B0BDB0",
"+  c #ABB8AB",
"@  c #AEBBAE",
"#  c #ABB7AB",
"$  c #AFBCAF",
"%  c #B1BDB1",
"&  c #ADB9AD",
"*  c #ACB9AC",
"=  c #CAD2CA",
"-  c #8FA18F",
";  c #133F02",
":  c #305905",
">  c #1C4803",
",  c #537053",
"<  c #91A391",
"1  c #2F6404",
"2  c #75BB0A",
"3  c #95C90D",
"4  c #AAD20F",
"5  c #83C10C",
"6  c #468106",
"7  c #4F6C4F",
"8  c #185A02",
"9  c #3CA306",
"0  c #229803",
"q  c #008B00",
"w  c #67B509",
"e  c #2E9E04",
"r  c #2E9D04",
"t  c #098E01",
"y  c #109101",
"u  c #2C9C04",
"i  c #1A9502",
"p  c #247203",
"a  c #547154",
"s  c #8FA28F",
"d  c #456D06",
"f  c #61B309",
"g  c #008C00",
"h  c #1B9603",
"j  c #209803",
"k  c #6BB60A",
"l  c #4DAA07",
"z  c #6AB609",
"x  c #6CB70A",
"c  c #678F09",
"v  c #527052",
"b  c #149402",
"n  c #56AD08",
"m  c #64B309",
"M  c #58AE08",
"N  c #85C20C",
"B  c #506D50",
"V  c #8EA18E",
"C  c #189502",
"Z  c #5CB008",
"A  c #5CB108",
"S  c #5DB008",
"D  c #7DBF0B",
"F  c #557255",
"G  c #90A290",
"H  c #5BB008",
"J  c #7CBE0B",
"K  c #516F51",
"L  c #8EA08E",
"P  c #90A390",
"I  c #109201",
"U  c #51AB07",
"Y  c #8DC60C",
"T  c #516E51",
"R  c #1F9803",
"E  c #69B609",
"W  c #68B509",
"Q  c #6CB80A",
"!  c #8CC50C",
"~  c #ACD30F",
"^  c #62B309",
"/  c #68B609",
"(  c #84C20C",
")  c #6BB70A",
"_  c #6DB80A",
"`  c #688F09",
"'  c #506E50",
"]  c #184402",
"[  c #3C6505",
"{  c #225A03",
"}  c #004E00",
"|  c #245C03",
" . c #105401",
".. c #2E6004",
"X. c #095001",
"o. c #2C5F04",
"O. c #1A5802",
"+. c #244F03",
"@. c #D6DAD6",
"#. c #B6C1B6",
"$. c #5F7C5F",
"%. c #003000",
"&. c #002E00",
"*. c #002F00",
"=. c #3C5F3C",
"-. c #B7C2B7",
";. c #D4DBD4",
":. c #F9F9F9",
">. c gray96",
",. c #778D77",
"<. c #3F6906",
"1. c #91B90D",
"2. c #3F9606",
"3. c #007D00",
"4. c #57A008",
"5. c #2E8F04",
"6. c #6FAA0A",
"7. c #8CB70C",
"8. c #138502",
"9. c #278C04",
"0. c #578008",
"q. c #547254",
"w. c #F4F4F4",
"e. c #E9E9E9",
"r. c #F3F3F3",
"t. c #7B917B",
"y. c #4A7307",
"u. c #4AAA07",
"i. c #37A105",
"p. c #A5CF0F",
"a. c #179502",
"s. c #088F01",
"d. c #3FA406",
"f. c #7ABD0B",
"g. c #45A606",
"h. c #526F52",
"j. c #ECECEC",
"k. c gray94",
"l. c #7E947E",
"z. c #239A03",
"x. c #72B90A",
"c. c #46A706",
"v. c #8FC60D",
"b. c #F1F1F1",
"n. c gray99",
"m. c gray98",
"M. c #F6F6F6",
"N. c #768C76",
"B. c gray91",
"V. c #2B9D04",
"C. c #81C00C",
"Z. c #37A005",
"A. c #A5D00F",
"S. c #7F957F",
"D. c #048D00",
"F. c #80BF0B",
"G. c #3AA205",
"H. c #4F6D4F",
"J. c #FDFDFD",
"K. c #FBFBFB",
"L. c #758B75",
"P. c #279B04",
"I. c #9ACC0E",
"U. c #E6E6E6",
"Y. c gray95",
"T. c #7C927C",
"R. c #0C9001",
"E. c #50AB07",
"W. c gray97",
"Q. c #EFEFEF",
"!. c #7D937D",
"~. c #3EA406",
"^. c #77BC0B",
"/. c #44A706",
"(. c gray93",
"). c #79BC0B",
"_. c #99CB0E",
"`. c #78BD0B",
"'. c #44A606",
"]. c #F8F8F8",
"[. c #5AB008",
"{. c #69B60A",
"}. c #93A393",
"|. c #779544",
" X c #BDDB49",
".X c #BAD846",
"XX c #77BE44",
"oX c #3DA53D",
"OX c #89C343",
"+X c #BFDD4B",
"@X c #BBD947",
"#X c #65B540",
"$X c #9FCD45",
"%X c #BBDB4A",
"&X c #4DAB3E",
"*X c #3EA53E",
"=X c #3FA73F",
"-X c #3CA43C",
";X c #40A740",
":X c #3CA33C",
">X c #3FA63F",
",X c #61B442",
"<X c #9DCB44",
"1X c #61B542",
"2X c #BEDC4A",
"3X c #88A642",
/* pixels */
"  . X o . O + @ O # $ $ # $ $ + O @ + % @ + X & * X o * O o . = ",
"- ; : : : : : : : : : : : : : : : : : : : : : : : : : : : : > , ",
"< 1 2 2 2 2 3 4 4 4 4 4 5 2 2 2 2 2 2 2 2 2 2 2 2 2 2 2 2 2 6 7 ",
"- 8 9 9 0 q w 4 4 4 4 4 e r 9 t q q q q q q q q y r y u i 9 p a ",
"s d 4 4 f g w 4 4 4 4 4 e 5 4 h g g g g g g g g j k l z x 4 c v ",
"< d 4 4 f g w 4 4 4 4 4 e 5 4 h g g g g g g g g b n m M N 4 c B ",
"V d 4 4 f g w 4 4 4 4 4 e 5 4 h g g g g g g g g C Z A S D 4 c F ",
"G d 4 4 f g w 4 4 4 4 4 e 5 4 h g g g g g g g g C H H S J 4 c K ",
"< d 4 4 f g w 4 4 4 4 4 e 5 4 h g g g g g g g g C H H S J 4 c B ",
"L d 4 4 f g w 4 4 4 4 4 e 5 4 h g g g g g g g g C H H S J 4 c F ",
"P d 4 4 f g w 4 4 4 4 4 e 5 4 h g g g g g g g g I l k U Y 4 c T ",
"P d 4 4 f g w 4 4 4 4 4 e 5 4 h g g g g g g g g R E l W Q 4 c T ",
"L d 4 4 f g w 4 4 4 4 4 e 5 4 h g g g g g g g g I l E U ! 4 c F ",
"P d ~ ~ ^ g / ~ ~ ~ ~ ~ e ( ~ h g g g g g g g g j ) l E _ ~ ` ' ",
"P ] [ [ { } | [ [ [ [ [  ...[ X.} } } } } } } }  ... .o.O.[ +.K ",
"@.#.$.%.%.&.*.%.%.%.%.%.*.*.%.*.*.&.&.&.*.&.*.&.&.%.&.%.*.=.-.;.",
":.>.,.<.1.1.2.3.4.1.1.1.1.5.6.7.8.3.3.3.3.3.3.9.6.9.1.1.0.q.w.e.",
"r.r.t.y.4 4 u.g w 4 4 4 4 i.5 p.a.g g g g g g s.d.f.g.4 c h.r.r.",
"j.k.l.y.4 4 u.g w 4 4 4 4 i.5 p.a.g g g g g g z.x.c.v.4 c B b.n.",
"m.M.N.y.4 4 u.g w 4 4 4 4 i.5 p.a.g g g g g g s.d.f.g.4 c F >.B.",
"r.r.t.y.4 4 u.g w 4 4 4 4 i.5 p.a.g g g g g g V.C.Z.A.4 c h.r.r.",
"j.k.S.y.4 4 u.g w 4 4 4 4 i.5 p.a.g g g g g g D.i.F.G.4 c H.b.J.",
"K.M.L.y.4 4 u.g w 4 4 4 4 i.5 p.a.g g g g g g P.f.d.I.4 c F >.U.",
"k.Y.T.y.4 4 u.g w 4 4 4 4 i.5 p.a.g g g g g g R.c.x.E.4 c T Y.W.",
"Q.b.!.y.4 4 u.g w 4 4 4 4 i.5 p.a.g g g g g g P.f.d.I.4 c T Y.:.",
"K.M.L.y.4 4 u.g w 4 4 4 4 i.5 p.a.g g g g g g s.~.^./.4 c F >.U.",
"(.b.l.y.4 4 u.g w 4 4 4 4 i.5 p.a.g g g g g g P.).d._.4 c B b.K.",
"Q.Y.!.y.4 4 u.g w 4 4 4 4 i.5 p.a.g g g g g g s.~.`.'.4 c T Y.].",
"m.M.N.y.4 4 u.g w 4 4 4 4 i.5 p.a.g g g g g g R k l ( 4 c F >.B.",
"(.b.l.y.4 4 u.g w 4 4 4 4 i.5 p.a.g g g g g g I l E [.4 c B b.K.",
"b.Y.t.y.4 4 u.g w 4 4 4 4 i.5 p.a.g g g g g g R {.l 5 4 c h.Y.>.",
"K.M.}.|. X.XXXoXOX+X@X@X+X#X$X%X&X*X=X-X*X;X:X>X,X<X1X2X3XS.>.U."
};
