/* XPM */
static char *_d4df762a69e48b8f931ec11e6fed442SkOMYawnODxK1jue[] = {
/* columns rows colors chars-per-pixel */
"32 32 139 2 ",
"   c #669E34",
".  c #669E33",
"X  c #669F32",
"o  c #74B038",
"O  c #659F33",
"+  c #669F33",
"@  c #74B139",
"#  c #74B039",
"$  c #7CBB3E",
"%  c #7CBB3F",
"&  c #65A031",
"*  c #74B03A",
"=  c #66A030",
"-  c #7BBB3F",
";  c #7BBC3C",
":  c #84CA42",
">  c #85CA41",
",  c #73B139",
"<  c #669F31",
"1  c #86C944",
"2  c #84CA41",
"3  c #66A031",
"4  c #73B138",
"5  c #7BBB3D",
"6  c #679F31",
"7  c #65A032",
"8  c #8FD44A",
"9  c #66A02F",
"0  c #7BBC3D",
"q  c #85CA44",
"w  c #7CBD3C",
"e  c #66A032",
"r  c #679F33",
"t  c #659F31",
"y  c #85C843",
"u  c #85CA42",
"i  c #7BBC3B",
"p  c #7CBB3D",
"a  c #7CBB40",
"s  c #86C946",
"d  c #65A02F",
"f  c #83CB40",
"g  c #84CA40",
"h  c #85C944",
"j  c #74B137",
"k  c #7BBB3E",
"l  c #65A030",
"z  c #85CA43",
"x  c #72B234",
"c  c #86C843",
"v  c #8ED648",
"b  c #7CBD3D",
"n  c #85C942",
"m  c #84C942",
"M  c #65A02E",
"N  c #7CBA3E",
"B  c #7BBC3E",
"V  c #74B03B",
"C  c #85C845",
"Z  c #73B137",
"A  c #7CBC3E",
"S  c #7CBC3D",
"D  c #8FD548",
"F  c #65A12D",
"G  c #74B237",
"H  c #8FD54A",
"J  c #669F30",
"K  c #669E32",
"L  c #8FD549",
"P  c #85C946",
"I  c #7DBD3D",
"U  c #86C846",
"Y  c #7BBD3C",
"T  c #85C945",
"R  c #86CA41",
"E  c #65A12F",
"W  c #86C942",
"Q  c #87C749",
"!  c #84C941",
"~  c #7BBD3B",
"^  c #8DD647",
"/  c #65A12E",
"(  c #7CBB41",
")  c #8ED647",
"_  c #7BBB3C",
"`  c #73B236",
"'  c #7ABC3B",
"]  c #85C943",
"[  c #64A12E",
"{  c #66A02E",
"}  c #74B138",
"|  c #7CBC3C",
" . c #73B237",
".. c #64A130",
"X. c #7CBA3F",
"o. c #7BBD3D",
"O. c #85C941",
"+. c #7ABC3C",
"@. c #90D547",
"#. c #90D44A",
"$. c #7DBC3E",
"%. c #7ABD3B",
"&. c #7CBA40",
"*. c #75B039",
"=. c #74AF3B",
"-. c #90D548",
";. c #8ED646",
":. c #7ABC3D",
">. c #7BBB41",
",. c #8FD648",
"<. c #8FD647",
"1. c #86C943",
"2. c #72B238",
"3. c #73B136",
"4. c #64A031",
"5. c #8FD547",
"6. c #7BBB40",
"7. c #74AF3C",
"8. c #7CBA41",
"9. c #66A02D",
"0. c #73B13A",
"q. c #659F32",
"w. c #84C944",
"e. c #72B137",
"r. c #7BBC3F",
"t. c #659F30",
"y. c #84C943",
"u. c #73B234",
"i. c #75B03A",
"p. c #7DBA41",
"a. c #8ED548",
"s. c #74B13A",
"d. c #7CBE3D",
"f. c #87C844",
"g. c #86C845",
"h. c #74B03C",
"j. c #8ED54A",
"k. c #7CBA42",
"l. c #65A033",
/* pixels */
"  . X o O + @ + + + # $ % & X * = - ; : > ; $ $ , # + X + + + . ",
"< X 1 2 1 3 4 $ 5 % 6 X 7 8 , 9 % 0 q w % X + e , r t y u i p + ",
"a t & s d 1 f g h j e a k 0 l , z u x c 3 * $ k $ 3 a 0 g v w % ",
"b n , * < 7 m > ; 0 a M N ; B 5 ; b h > = + + + t V 3 % 0 b C < ",
"i > Z 3 A 0 S 5 0 D F k G q u i 0 0 0 0 B 5 5 ; H Z V J @ X # K ",
"L d P 0 z u i 5 - I U : ; ; Y T R u > g u i 5 5 5 % 9 V E V # X ",
"X # ; 0 i z u W M Q M ! g g U E 7 ~ ; ^ g T 5 5 ; 0 ; z > = < V ",
"+ 4 h u i ; % / ( d - 0 2 ) E z u u g g U E 4 0 u u _ ; 5 a * < ",
"# # ` : z > u ' u ] 0 5 5 5 0 u 0 & n h [ z n i 5 5 % $ % { } | ",
"3 + 4 h  ...! 1 d % $ k $ A 0 5 & X.G o.O.> > ] k % { + j + +.H ",
"a ; @.l k #.$.X * < + } 3 U > > n ~ % k p $ k % J o * 3 0 %.v i ",
"9 &.X + + O X + } *.+ + X , & =.l -.l # X + ` + + + } - ; v ;.; ",
"K = + + + + + + k ; ) 0 :.;.>.9 V & ( 9 * 7 ,.5 0 0 5 5 5 0 <.0 ",
"+ 4 h u i 0 p 7 - E :.0 2 ) d 1.u R 2 2 1 l 2.0 u u _ 5 5 % 4 3 ",
"# # 3.: z > u ' ] y o.5 5 5 0 ] | 4.n h [ ] : i 5 5 % $ % { o B ",
"3 + 4 h  ...m 1 d % $ k $ A 0 S & X.G o.O.> > ] k % { + j + 0 v ",
"a ; @.l k #.$.X V < + } 3 U > > n ~ % k p $ k % J o * 3 0 %.v i ",
"9 &.X + + O X + } *.X X X , & =.l -.l # X + ` + + + } - ; v ;.; ",
"K < . + . . + + $ ; ) B 0 5.6.9 7.d 8.9.0.7 L 5 k k $ $ $ 0 <.0 ",
". . q.4 + + @ + + + # $ % & 3 V d &.b w.2 % S $ } o + X + + + . ",
"< q.q 2 1 & e.k 5 % 6 3 7 D * { r.0 h Y a = X 3 # r t.y.z i $ X ",
"a t & P E 1 g g h e.e 8.5 5 & # z u u.] 3 i.$ $ % 3 p.; > a.b a ",
"S h @ * 3 7 ! > i ; 8.d k ; B k ; b ] > = + + + & V = 6.5 b C < ",
"i ] 4 3 A 0 0 5 i H d N G q u i 0 0 ; 0 B 5 5 ; H Z V = # X s.X ",
"L / T ; u u i 5 - d.n : ; ; Y T R u > g u i 5 5 5 k d * = V # X ",
"X # ; 0 ; z u W M f.l ! 2 g g.E 7 ~ ; ^ g T 5 5 0 0 k 2 > = 3 h.",
"+ 4 h u i ; % / ( d - Y 2 <./ h u u g g U E 4 0 n u _ 0 5 a * & ",
"# # ` : z > u ' u n 0 5 5 5 0 h p 4.n h [ z n i 5 5 % $ % { o _ ",
"3 + 4 h  ...! 1 d % $ k $ A 0 B E X.G o.O.> > ] k % { + j + ; j.",
"a ; @.l k #.$.X * < + } 3 U > > n ~ % k p $ k % J o * 3 0 %.v i ",
"9 &.X + + O X + } *.+ + X , & V l -.l # X + ` + + + } - ; v ;.; ",
"K < . . . . . + k ; ) 0 0 ;.- = h.= k.= V l.<.5 5 5 5 5 5 0 ;.; "
};
