/* XPM */
static char *result[] = {
/* columns rows colors chars-per-pixel */
"49 49 17 1 ",
"  c black",
". c #6C0000",
"X c #482424",
"o c #484848",
"O c #B40000",
"+ c #D82424",
"@ c #B46C48",
"# c #FC4848",
"$ c #FCB424",
"% c #242490",
"& c #4848B4",
"* c #2987F0",
"= c #909090",
"- c #B4B4B4",
"; c #FCB490",
": c gray99",
"> c None",
/* pixels */
"*************************************************",
">>>>>>>>>>>>>>>>>>>>>>>>>>>>>>>>>>>>>>>>>>>>>>>>*",
">>>>>>>>>>>>>>>>>>>>>>>>>>>>>>>>>>>>>>>>>>>>>>>>*",
">>>>>>>>>>>>>>>>>>>>>>>>>>>>>>>>>>>>>>>>>>>>>>>>*",
">>>>>>>>>>>>>>>>>>>>>>>>>>>>>>>>>>>>>>>>>>>>>>>>*",
">>>>>>>>>>>>>>>>>>>>>>>>>>>>>>>>>>>>>>>>>>>>>>>>*",
">>>>>>>>>>>>>>>>>>>>>>>>>>>>>>>>>>>>>>>>>>>>>>>>*",
">>>>>>>>>>>>>>>>OOOO>>>>>>>>>>>>>>>>>>>>>>>>>>>>*",
">>>>>>>>>>>>>>>O+##+OO>>>>>>>>>>>>>>>>>>>>>>>>>>*",
">>>>>>>>>>>>>>O+####++O>>>>>>>>>>>>>>>>>>>>>>>>>*",
">>>>>>>>>>>>>>O:::+###+O>>>>>>>>>>>>>>>>>>>>>>>>*",
">>>>>>>>>>>>>>:::::++++O>>>>>>>>>>>>>>>>>>>>>>>>*",
">>>>>>>>>>OOOOO::::OO++OO>>>>>>>>>>>>>>>>>>>>>>>*",
">>>>>>>>>O.....OO::.OO+OO.>>>>>>>>>>>>>>>>>>>>>>*",
">>>>>>>>>........OO..OOOO..>>>>>>>>>>>>>>>>>>>>>*",
">>>>>>>>>>...      OO..OOO.OO>>>>>>>>>>>>>>>>>>>*",
">>>>>>>>>>>.   X    .O..OOOOO.>>>>>>>>>>>>>>>>>>*",
">>>>>>>>>>>> @ @  @ @....OOOO.>>>>>>>>>>>>>>>>>>*",
">>>>>>>>>>>>>: ; ::@@@ .....O.>>>>>>>>>>>>>>>>>>*",
">>>>>>>>>>>>>  ;  ::;@@ .....>>>>>>>>>>>>>>>>>>>*",
">>>>>>>>>>@::;@;  ::;;@   @@ >>>>>>>>>>>>>>>>>>>*",
">>>>>>>>>@::;;;;  :;:;   @XX@>>>>>>>>>>>>>>>>>>>*",
">>>>>>>>>@;;;;;@;;; ;;   ;X@@>>>>>--->>>>>>>>>>>*",
">>>>>>>>oX@;;@@ X@@  ;; X;X;@>>>=-:::->>>>>>>>>>*",
">>>>>>>>oXX@@@       ;;@@;;@>>%=::::::->>>>>>>>>*",
">>>>>>>>o=         X;;@@@@@ %%&-::::::->>>>>>>>>*",
">>>>>>>>>o=   X  X;XX@@@@ %%&&&-::=-::=>>>>>>>>>*",
">>>>>>>>>>oo&X@@@@X@@@@.%%&&&&&:-::=:=o>>>>>>>>>*",
">>>>>>>>>>>>>&XX@@@@@%.%&&&&&&&=o===oo>>>>>>>>>>*",
">>>>>>>>>>>>>>&&.%%%%..%&&&&&&%%>>>>>>>>>>>>>>>>*",
">>>>>>>>>>>>>>>.%&&&.O.%&&&&%%%>>>>>>>>>>>>>>>>>*",
">>>>>>>>>>>>>>>.&&&&OO.%%%%%%.>>>>>>>>>>>>>>>>>>*",
">>>>>>>>>>>>>>:.OOO.:$.%%%%%%..>>>>>>>>>>>>>>>>>*",
">>>>>>>>>>>>>>$O++#O$$...%%%....>>>>>>>>>>>>>>>>*",
">>>>>>>>>>>>>>.O+++#..+OO.......>>>>@>>>>>>>>>>>*",
">>>>>>>>@;>>>>.OO+++++OOOOO.....>>>XXX >>>>>>>>>*",
">>>>>>>@;@@>>>>.OOOOOOOOOOO.....>>>XXXX >>>>>>>>*",
">>>>>>>;;;@X>>>.OOOOOOOOOO.....>>>>>@@X >>>>>>>>*",
">>>>>>>;;;@@>>>>...OOOOO.......>>>>>X@@@ >>>>>>>*",
">>>>>>>@;;X@>>>>>.............>>>>>>X@@;X>>>>>>>*",
">>>>>>>>@@XXX>>>>>>>.......>>>>>>>>>>X;;X>>>>>>>*",
">>>>>>>>XX@X >>>>>>>>>>>>@@@X>>>>>>>>>@@>>>>>>>>*",
">>>>>>>>>@X >>>>>>>>>>>>>X@@@X>>>>X>>>>>>>>>>>>>*",
">>>>>>>>>>>>>>>>>>>>>>>>>X@@;@>>XXX>>>>>>>>>>>>>*",
">>>>>>>>>>>>>>>@@@@>>>>>>X@@;@XXXXX>>>>>>>>>>>>>*",
">>>>>>>>>>>>>@@@@@@@@@XX>XX@@@XXXX>>>>>>>>>>>>>>*",
">>>>>>>>>>>>>>@@@@@@@@@XXXX@@@XX>>>>>>>>>>>>>>>>*",
">>>>>>>>>>>>>>>>>@@@@@XXXXX@@@X>>>>>>>>>>>>>>>>>*",
">>>>>>>>>>>>>>>>>>>        X@X>>>>>>>>>>>>>>>>>>*"
};
