/* XPM */
static char *e12d18da8cdc4d15d2fa0eade011f429hTr4adZyOCGPJOZt[] = {
/* columns rows colors chars-per-pixel */
"32 32 164 2 ",
"   c black",
".  c #B40000",
"X  c #B40000",
"o  c #C41010",
"O  c #CC1818",
"+  c #B40000",
"@  c #BE0A0A",
"#  c #DC2828",
"$  c #F44040",
"%  c #FC4848",
"&  c #BC0808",
"*  c #E02C2C",
"=  c #F03C3C",
"-  c #EC9C9C",
";  c gray99",
":  c #B40000",
">  c #D82424",
",  c #C81414",
"<  c #B40000",
"1  c #B40000",
"2  c #A40000",
"3  c #800000",
"4  c #480000",
"5  c #8C0808",
"6  c #B41818",
"7  c #840000",
"8  c #940000",
"9  c #180000",
"0  c black",
"q  c #0C0000",
"w  c #441010",
"e  c #6C0000",
"r  c #700000",
"t  c #801810",
"y  c #6C4C3C",
"u  c #ECDCD4",
"i  c gray77",
"p  c #94644C",
"a  c #784830",
"s  c #ECBCA4",
"d  c gray33",
"f  c #B4846C",
"g  c #FCB490",
"h  c #C98B71",
"j  c #281810",
"k  c #FCCCB4",
"l  c #1C1410",
"z  c #C4BCB8",
"x  c #FCB490",
"c  c #B47458",
"v  c #482820",
"b  c #705040",
"n  c #8C6C5C",
"m  c #FCECE4",
"M  c #C48C70",
"N  c #FCC4A8",
"B  c #E49C78",
"V  c #D48C68",
"C  c #9C6450",
"Z  c #543C30",
"A  c #9C6448",
"S  c #E49C78",
"D  c #B46C48",
"F  c #C9815D",
"G  c #BC7450",
"H  c #B47C60",
"J  c #201010",
"K  c #140C08",
"L  c #3C2418",
"P  c #1D0E0E",
"I  c #603828",
"U  c #B46C48",
"Y  c #844C38",
"T  c #240000",
"R  c #540000",
"E  c #303078",
"W  c #943C28",
"Q  c #7C0000",
"!  c #9C0000",
"~  c #4848B4",
"^  c #4F4FBB",
"/  c #5454C0",
"(  c #6C6CD8",
")  c #5C4498",
"_  c #880404",
"`  c #481C64",
"'  c #90606C",
"]  c None",
"[  c #6464D0",
"{  c #641C40",
"}  c #D01C1C",
"|  c #A0142C",
" . c #3838A4",
".. c #4848B4",
"X. c #909090",
"o. c #979797",
"O. c #ACACAC",
"+. c #606060",
"@. c #7070A0",
"#. c #6060CC",
"$. c #5050BC",
"%. c #3C3CA8",
"&. c #5C1438",
"*. c #FCC454",
"=. c #AC4C3C",
"-. c #A2A2A2",
";. c gainsboro",
":. c #F4F4F4",
">. c #C0C0C0",
",. c #D0D0D0",
"<. c #7070AC",
"1. c #30309C",
"2. c #341C70",
"3. c #840410",
"4. c #9C3C0C",
"5. c #BC2414",
"6. c #E43030",
"7. c #909090",
"8. c #888888",
"9. c gray58",
"0. c #E4E4E4",
"q. c #C8C8C8",
"w. c #909090",
"e. c #36366C",
"r. c #242490",
"t. c #6C0000",
"y. c #484848",
"u. c #7B7B7B",
"i. c #6C6C6C",
"p. c #989898",
"a. c #565656",
"s. c #242490",
"d. c #484848",
"f. c #484848",
"g. c #8C0000",
"h. c #D42020",
"j. c #BC1010",
"k. c #6C0000",
"l. c #6C0000",
"z. c #A00C0C",
"x. c #6C0000",
"c. c #C00C0C",
"v. c #410000",
"b. c #600000",
"n. c #480000",
"m. c #541818",
"M. c #A44830",
"N. c #B44830",
"B. c #A43020",
"V. c #381010",
"C. c black",
"Z. c #482424",
"A. c #90543C",
"S. c #9C5C40",
"D. c #784434",
"F. c #381C1C",
"G. c #241212",
"H. c black",
"J. c #180C0C",
"K. c #301C14",
"L. c #6C3C30",
"P. c #341C18",
"I. c #180C0C",
"U. c #0E0707",
/* pixels */
"                                                                ",
"                                                                ",
"                                                                ",
"                                                                ",
"                        . X o O O o X .                         ",
"                      + @ # $ % % $ # @ +                       ",
"                    X & * = - ; ; - = * & X                     ",
"                    : O > , ; ; ; ; , > O :                     ",
"                  < 1 2 3 4 5 6 6 5 4 3 2 1 <                   ",
"                  < 7 8 9 0 q w w q 0 9 8 7 <                   ",
"                  e r t y u i p p i u y t r e                   ",
"                    9 a s ; d f f d ; s a 9                     ",
"                g h j 0 k ; l z z l ; k 0 j h g                 ",
"                x c v b n m M N N M m n b v c x                 ",
"                B V C Z j v A S S A v j Z C V B                 ",
"                D F G H J 0 K L L K 0 J H G F D                 ",
"                    P I U Y T R R T Y U I P                     ",
"                    E E W U Q ! ! Q U W E E                     ",
"              ~ ^ / ( ) _ ` ' ' ' ' ` _ ) ( / ^ ~               ",
"            ~ ] [ ( [ { } |  ..... .| } { [ ( [ ] ~             ",
"      X.o.O.+.@.#.$.%.&.*.=.o O O o =.*.&.%.$.#.@.+.O.o.X.      ",
"    X.-.;.:.>.,.<.1.2.3.4.5.6.% % 6.5.4.3.2.1.<.,.>.:.;.-.X.    ",
"    7.8.9.0.q.w.e.r.t.! & O O O O O O & ! t.r.e.w.q.0.9.8.7.    ",
"    y.u.i.i.p.a.s.  t.! 1 1 1 1 1 1 1 1 ! t.  s.a.p.i.i.u.y.    ",
"        d.-.f.      7 & ! g.! ! ! ! g.! & 7       f.-.d.        ",
"          d.        5 h.j.Q k.k.k.k.Q j.h.5         d.          ",
"                  l.z.> O 1 T q q T 1 O > z.l.                  ",
"                  x.c.> & 1 k.v.v.k.1 & > c.x.                  ",
"                  x.2 o 1 8 b.n.n.b.8 1 o 2 x.                  ",
"                  m.M.N.B.7 V.C.C.V.7 B.N.M.m.                  ",
"                Z.A.U S.D.F.G.H.H.G.F.D.S.U A.Z.                ",
"                J.K.L.P.I.U.H.    H.U.I.P.L.K.J.                "
};
