/* XPM */
static char *_85c415d2e7f4ca9d762be737990e370WIkXRuYDnx7QXSA7[] = {
/* columns rows colors chars-per-pixel */
"32 32 221 2 ",
"   c black",
".  c #B40000",
"X  c #BB0707",
"o  c #D42020",
"O  c #D82424",
"+  c #C30F0F",
"@  c #B40000",
"#  c #B40000",
"$  c #EC3838",
"%  c #FA4646",
"&  c #FC4848",
"*  c #F13D3D",
"=  c #D62222",
"-  c #B40000",
";  c #CB1717",
":  c #E12D2D",
">  c #E63232",
",  c #DD2929",
"<  c #EA3636",
"1  c #CF1B1B",
"2  c #B90505",
"3  c #B40000",
"4  c #B90505",
"5  c #C41D1D",
"6  c #BD1B1B",
"7  c #C41010",
"8  c #B40000",
"9  c #C61212",
"0  c #A21212",
"q  c #950505",
"w  c #900000",
"e  c #CB2020",
"r  c #B40000",
"t  c #900000",
"y  c #CD1919",
"u  c #B00E0E",
"i  c #CB1B1B",
"p  c #D11D1D",
"a  c #B91717",
"s  c #9E0909",
"d  c #C20E0E",
"f  c #990000",
"g  c #7E0000",
"h  c #7E0000",
"j  c #A20000",
"k  c #BD0909",
"l  c #840000",
"z  c #6C0000",
"x  c #722418",
"c  c #5F0000",
"v  c #AB0000",
"b  c #7A0000",
"n  c #65160E",
"m  c #B46C48",
"M  c #B46C48",
"N  c #956248",
"B  c #1B0000",
"V  c #440000",
"C  c #7E0000",
"Z  c #510000",
"A  c #360000",
"S  c #6C4836",
"D  c #C67E5A",
"F  c #B46C48",
"G  c #CF8763",
"H  c #5A3624",
"J  c black",
"K  c #140000",
"L  c #3D0000",
"P  c #C67E5A",
"I  c #B46C48",
"U  c #B46C48",
"Y  c #9E5F3F",
"T  c #653D29",
"R  c #B46C48",
"E  c #B46C48",
"W  c #482424",
"Q  c #291515",
"!  c #0E0707",
"~  c #482424",
"^  c #482424",
"/  c #1F0F0F",
"(  c #1B0E0E",
")  c #2B1616",
"_  c #361B1B",
"`  c #4848B4",
"'  c #4F4FBB",
"]  c #514AB0",
"[  c #681B44",
"{  c #680924",
"}  c #2B2B97",
"|  c #2D2D99",
" . c #3B1B6C",
".. c #5144A2",
"X. c #5151BD",
"o. c #4848B4",
"O. c #4848B4",
"+. c #4848B4",
"@. c None",
"#. c #6868D4",
"$. c #583D8E",
"%. c #BF171D",
"&. c #5A3890",
"*. c #4848B4",
"=. c #A00E22",
"-. c #BB0707",
";. c #5F295F",
":. c #6565D1",
">. c #6363CF",
",. c #5050BC",
"<. c #4848B4",
"1. c #5D5DC9",
"2. c #6C6CD8",
"3. c #5A5AC6",
"4. c #3636A2",
"5. c #6C0000",
"6. c #990909",
"7. c #361B6C",
"8. c #5151BD",
"9. c #909090",
"0. c #868695",
"q. c #7171C8",
"w. c #5F5FCB",
"e. c #3434A0",
"r. c #242490",
"t. c #870000",
"y. c #292995",
"u. c #4F4FBB",
"i. c #7D7DA8",
"p. c #909090",
"a. c #B4B4B4",
"s. c #A5A5A5",
"d. c #A2A2A2",
"f. c gray74",
"g. c gray53",
"h. c #9999B4",
"j. c #242490",
"k. c #540C30",
"l. c #242490",
"z. c #7E7EB4",
"x. c gray62",
"c. c gray60",
"v. c #B4B4B4",
"b. c gray53",
"n. c #8E8E8E",
"m. c gray46",
"M. c #6C6C6C",
"N. c #76768B",
"B. c #242490",
"V. c #242490",
"C. c #6C0000",
"Z. c #9E0000",
"A. c #8C0000",
"S. c #AD0707",
"D. c #830000",
"F. c #242490",
"G. c #242490",
"H. c #71719F",
"J. c gray45",
"K. c #686868",
"L. c #909090",
"P. c gray53",
"I. c #484848",
"U. c #676767",
"Y. c #484848",
"T. c #6C0000",
"R. c #750000",
"E. c #6C0000",
"W. c #5D5D5D",
"Q. c #7E7E7E",
"!. c #484848",
"~. c #484848",
"^. c gray37",
"/. c #5A5A5A",
"(. c #484848",
"). c #710000",
"_. c #565656",
"`. c #606060",
"'. c #2987F0",
"]. c #6C0000",
"[. c #6C0000",
"{. c #950000",
"}. c #78120C",
"|. c #830505",
" X c #4F0909",
".X c #0A0505",
"XX c black",
"oX c #900505",
"OX c #AD1710",
"+X c #7E1B12",
"@X c #7E1B12",
"#X c #AA5D3E",
"$X c #903624",
"%X c #5A1212",
"&X c #511B1B",
"*X c #482424",
"=X c #120909",
"-X c black",
";X c #4D2D20",
":X c #462323",
">X c #130909",
",X c #020101",
"<X c #361B1B",
"1X c #010101",
"2X c #010000",
"3X c black",
"4X c #010000",
"5X c #281414",
"6X c #120909",
"7X c #050303",
"8X c #2D1717",
"9X c black",
"0X c #331A1A",
"qX c #482424",
"wX c #482424",
"eX c #482424",
"rX c #482424",
"tX c #482424",
"yX c #472629",
"uX c #150D10",
"iX c #2987F0",
/* pixels */
"                                                                ",
"                                                                ",
"                                                                ",
"                                                                ",
"                        . X o O O + @                           ",
"                      # + $ % & & * = # -                       ",
"                    @ ; : > O O O , < 1 2                       ",
"                  3 4 O O O 5 6 6 O O O 7 @ 8                   ",
"                  # 9 O O 0 q w w 0 e O O r .                   ",
"                  t 2 y u u i O p a s ; d f g                   ",
"                  h j 2 k ; O < , o 2 k r l z                   ",
"                  x c j v r r r r r r j b n m                   ",
"                M N B V C w w w w w w Z A S D                   ",
"                F G H J J K Z Z Z L J J J G P                   ",
"                I U Y J J J J J J J J J T R E                   ",
"                  W Q J J J J J J J J J ! ~                     ",
"                    ^ / ( J J J J J J ) _                       ",
"                  ` ' ] [ { } | |  .C ..X.o.O.                  ",
"              ` +.@.#.$.w %.&.*.*.=.-.;.:.>.,.<.                ",
"            o.1.2.3.4.5.6.2 9 9 9 d d 5.7.X.#.>.8.              ",
"          9.0.q.w.e.r.b v p 7 k k = -.t.7.y.u.2.i.p.            ",
"    a.s.d.f.g.h.| j.k.r r 9 o O O 9 2 r C l.y.z.x.c.d.d.v.      ",
"    b.n.m.m.M.N.B.V.C.Z.w A.S.k k D.w f b F.G.H.J.g.K.L.P.      ",
"    I.U.M.M.M.Y.  z T.R.j j j r r C r C 5.E.  I.W.Q.M.M.!.      ",
"      ~.I.^./.(.  E.5.5.R.b b C C ).C 5.5.C.    _.`.I.I.        ",
"                  C.C w w 5.5.5.5.5.t.w w T.z                 '.",
"                  l r r v 5.].  [.5.{.r r w E.                  ",
"                  l r r w 5.E.    5.5.r r w E.                '.",
"                  }.t.j |. X.X  XXK Z oXOX+X@X                  ",
"                M #X$X%X&X*X=X  -XJ J =X;XR F                   ",
"                :X>X,X<X1X2XXX    3X4X5X6X7X8X                  ",
"                9X0XqXqXqXwX      eXrXwXtXyXuXiX'.              "
};
