/* XPM */
static char *_83bffe88b5e45afb06730804c7e9baf853CvEuuPud5ohHc[] = {
/* columns rows colors chars-per-pixel */
"32 32 255 2 ",
"   c None",
".  c #2987F0",
"X  c black",
"o  c #B40000",
"O  c #B40000",
"+  c #B40000",
"@  c #B40000",
"#  c #DD2929",
"$  c #EA3636",
"%  c #C30F0F",
"&  c #B40000",
"*  c #CF1B1B",
"=  c #F33F3F",
"-  c #F88787",
";  c #F39999",
":  c #C63030",
">  c #B40000",
",  c #B40000",
"<  c #DA2626",
"1  c #E67575",
"2  c #FAEFEF",
"3  c gray99",
"4  c #E09B9B",
"5  c #B40000",
"6  c #890000",
"7  c #B40000",
"8  c #D42020",
"9  c #B90505",
"0  c #C67E7E",
"q  c #D87E7E",
"w  c #A22020",
"e  c #900000",
"r  c #9C0000",
"t  c #730000",
"y  c #8C0000",
"u  c #A90707",
"i  c #950000",
"p  c #8C2020",
"a  c #993F3F",
"s  c #630000",
"d  c #560000",
"f  c #5F0000",
"g  c #6C0000",
"h  c #760000",
"j  c #6C0000",
"k  c #990000",
"l  c #750000",
"z  c #2D0000",
"x  c black",
"c  c #120909",
"v  c #090505",
"b  c #1B0000",
"n  c #5D0000",
"m  c #6C0000",
"M  c #B00000",
"N  c #A20000",
"B  c #5C0705",
"V  c #A7583B",
"C  c #7A5644",
"Z  c #61534D",
"A  c #633F2D",
"S  c #634434",
"D  c #715243",
"F  c black",
"G  c #870000",
"H  c #440000",
"J  c #71442D",
"K  c #CF8763",
"L  c #EAD8CF",
"P  c gray62",
"I  c #7E5A48",
"U  c #5F4D44",
"Y  c #7E7E7E",
"T  c #482B1D",
"R  c #995A3F",
"E  c #22140E",
"W  c #A46A4D",
"Q  c #FCC2A4",
"!  c #FCF3EF",
"~  c #3F3F3F",
"^  c #E19975",
"/  c #FCCFB9",
"(  c #EFDDD4",
")  c #C2896C",
"_  c #B4B4B4",
"`  c #B4B4B4",
"'  c #B4B4B4",
"]  c #AD6846",
"[  c #5C322B",
"{  c #B07A5F",
"}  c #3F2D24",
"|  c #9E7A68",
" . c #CD977C",
".. c #C28363",
"X. c #EFA783",
"o. c #FCB490",
"O. c #D8997A",
"+. c #B4B4B4",
"@. c #D5D5D5",
"#. c #EFEFEF",
"$. c #B9B9B9",
"%. c #757590",
"&. c #242490",
"*. c #C57D59",
"=. c #925F4F",
"-. c #D69577",
";. c #3B2219",
":. c #44291B",
">. c #875136",
",. c #1B0E0E",
"<. c #D6906E",
"1. c #713F32",
"2. c #484848",
"3. c #B4B4B4",
"4. c #EAEAEA",
"5. c #9090AB",
"6. c #33339F",
"7. c #272169",
"8. c #A06548",
"9. c #C27A56",
"0. c #B46C48",
"q. c #D48C68",
"w. c #CD9275",
"e. c #0B0705",
"r. c #2D1B12",
"t. c #261710",
"y. c #483F3F",
"u. c gray81",
"i. c gray83",
"p. c gray75",
"a. c #F3F3F3",
"s. c #A7A7C2",
"d. c #4848B4",
"f. c #4141AD",
"g. c #2D2D99",
"h. c #2B1D32",
"j. c #9E533F",
"k. c #774434",
"l. c #996351",
"z. c #7E4D3F",
"x. c #41241D",
"c. c #120E1B",
"v. c #2D2D34",
"b. c #676767",
"n. c #484848",
"m. c gray38",
"M. c #838383",
"N. c #A4A4A4",
"B. c gray53",
"V. c #9292AD",
"C. c #3F3FAB",
"Z. c #38247C",
"A. c #71222D",
"S. c #995F56",
"D. c #A76344",
"F. c #8C513B",
"G. c #5C3846",
"H. c #484197",
"J. c #484863",
"K. c #242490",
"L. c #3B3BA7",
"P. c #5A0E36",
"I. c #3636A2",
"U. c #511B51",
"Y. c #513687",
"T. c #242490",
"R. c #4F0E3A",
"E. c #262692",
"W. c #7E0000",
"Q. c #A70000",
"!. c #562056",
"~. c #6C0000",
"^. c #3F175A",
"/. c #242490",
"(. c #2D207E",
"). c #481248",
"_. c #902D09",
"`. c #FCCF75",
"'. c #B41212",
"]. c #CB1717",
"[. c #AB0909",
"{. c #D89060",
"}. c black",
"|. c #60362A",
" X c #7E4836",
".X c #482424",
"XX c #680209",
"oX c #680924",
"OX c #7A071B",
"+X c #B21B12",
"@X c #AB3612",
"#X c #E12D2D",
"$X c #C20E0E",
"%X c #9C1E06",
"&X c #FCB490",
"*X c #B46C48",
"=X c #180C0C",
"-X c #3F2020",
";X c #482424",
":X c #482424",
">X c #C61212",
",X c #7E0000",
"<X c #B46C48",
"1X c #CC8460",
"2X c #D38B67",
"3X c #B46C48",
"4X c #482920",
"5X c #854D38",
"6X c #734132",
"7X c #6C0000",
"8X c #7A0000",
"9X c #AB0000",
"0X c #8B0000",
"qX c #6C0000",
"wX c #894F3A",
"eX c #F8B08C",
"rX c #EAA27E",
"tX c #241212",
"yX c #C67E5A",
"uX c #482424",
"iX c #6C0000",
"pX c #6C0000",
"aX c #A26042",
"sX c #BD7E63",
"dX c #F3AB87",
"fX c #D8906C",
"gX c #482424",
"hX c #EAA27E",
"jX c #895648",
"kX c #63362D",
"lX c #822116",
"zX c #7A160E",
"xX c #361B1B",
"cX c #4A2624",
"vX c #7E4836",
"bX c #995A3F",
"nX c #B46C48",
"mX c #7E4836",
"MX c black",
"NX c #391F1A",
"BX c #482424",
"VX c #482424",
"CX c #9E5E41",
"ZX c #B46C48",
"AX c #63362D",
"SX c #B46C48",
"DX c #B46C48",
"FX c #482424",
"GX c #63362D",
"HX c #A05F41",
"JX c #B46C48",
"KX c #5E322B",
"LX c #261412",
"PX c #190E0B",
"IX c #482B1D",
/* pixels */
"  . . . . . . . . . . . . . . . . . . . . . . . . . . . . . . . ",
". X X X X X X X X X X X X X X X X X X X X X X X X X X X X X X X ",
". X X X X X X X X X X X X X X X X X X X X X X X X X X X X X X X ",
". X X X X X X X X X X X X X X X X X X X X X X X X X X X X X X X ",
". X X X X X X X X X X X X X X X X X X o o O X X X X X X X X X X ",
". X X X X X X X X X X X X X X X X + @ # $ % + X X X X X X X X X ",
". X X X X X X X X X X X X X X X & * $ = - ; : X X X X X X X X X ",
". X X X X X X X X X X X X X X > , < < 1 2 3 4 O O 5 X X X X X X ",
". X X X X X X X X X X X X X X 6 7 8 9 0 3 q w e e r X X X X X X ",
". X X X X X X X X X X X X O t y 7 u i p a s d f g h X X X X X X ",
". X X X X X X X X X X X j 7 k 7 k l e z x c v b n j X X X X X X ",
". X X X X X X X X X X X m M N i g B V C Z A S D F X X X X X X X ",
". X X X X X X X X X X X j G g g H J K L P I U Y X X X X X X X X ",
". X X X X X X X X X X X X T R E x W Q ! ~ I ^ / ( ) X X X X X X ",
". X X X X X X _ ` ' X X X ] [ { x } Q |  ...X.o.Q O.X X X X X X ",
". X X X X X +.@.3 #.$.%.&.*.=.-.;.o.} :.>.,.J K <.1.2.X X X X X ",
". X X X X X 3.4.3 3 3 5.6.7.8.9.0.q.w.,.x x e.r.t.y.2.X X X X X ",
". X X X X X Y u.i.p.a.s.d.f.g.h.j.0.k.l.z.r.x.c.v.b.X X X X X X ",
". X X X X X n.m.M.N.B.V.d.d.d.C.Z.A.S.D.] F.G.H.J.n.X X X X X X ",
". X X X X X X X X X X K.g.L.d.d.g.l P.I.I.U.Y.X X X X X X X X X ",
". X X X X X X X X X X T.R.E.g.g.E.W.Q.d.d.!.j X X X X X X X X X ",
". X X X X X X X X X X ~.g ^./.(.)._.`.'.].[.{.X X X X X X X X X ",
". X X X X X }.|. X.XX g g XXoXOXN +X@X#X< $X%XX X &X*XX X X X X ",
". X X X X X =X-X;X:XX g g g N 7 7 9 >X>X>XN ,XX <X1X2X3XX X X X ",
". X X X X F 4X5X6X.XX 7Xg g 8XN M 7 7 9XN 0XqXX wXK eXrXX X X X ",
". X X X X tXyXR uXX X iXpXg g g G e e W.g j X X aXsXdXfXX X X X ",
". X X X X gXhXjXX X X X X kXlXzXpXpXpXX X X X xXcXvXbXX X X X X ",
". X X X X X nX<XX :XX X :XF.0.mXX X X X X X X MXNXvXBXX X X X X ",
". X X X X X X X X VX;X:XCXhX0.VXX X X <X3X3XZXX X X X X X X X X ",
". X X X X X X X X uX;X;XvXK F.VXBXAXnXSX0.0.DX3XX X X X X X X X ",
". X X X X X X X X X X FXvX0.GX;X;XHX0.0.0.SXJXX X X X X X X X X ",
". X X X X X X X X X X .XKXHXLXc c PXr.IX3XX X X X X X X X X X X "
};
