/* XPM */
static char *_d46861aedea455aca116c4e89d1db36T2sF9uAkRIvE5i0G[] = {
/* columns rows colors chars-per-pixel */
"32 32 143 2 ",
"   c #925536",
".  c #E1804A",
"X  c #E18049",
"o  c #E1814A",
"O  c None",
"+  c #BC8E68",
"@  c #684633",
"#  c #C57142",
"$  c #E1814B",
"%  c #EDA973",
"&  c #64361F",
"*  c #934D2B",
"=  c #944C2B",
"-  c #A75730",
";  c #82492A",
":  c #3D2415",
">  c #834426",
",  c #944D2B",
"<  c #CE6D3E",
"1  c #63361F",
"2  c #954C2B",
"3  c #824829",
"4  c #3C2316",
"5  c #844326",
"6  c #814829",
"7  c #834326",
"8  c #CE6D3F",
"9  c #934C2A",
"0  c #A65730",
"q  c #834327",
"w  c #63351F",
"e  c #924C2A",
"r  c #834427",
"t  c #CD6D3F",
"y  c #81482A",
"u  c #824426",
"i  c #82482A",
"p  c #54301E",
"a  c #5F321C",
"s  c #5F331C",
"d  c #5F331D",
"f  c #69371F",
"g  c #492D1B",
"h  c #302014",
"j  c #582F1A",
"k  c #60331D",
"l  c #8A4D2F",
"z  c #3B2F27",
"x  c #342316",
"c  c #352417",
"v  c #332416",
"b  c #2A1E13",
"n  c #322316",
"m  c #332316",
"M  c #362517",
"N  c #5B4636",
"B  c #925738",
"V  c #C57243",
"C  c #C67343",
"Z  c #C37C4D",
"A  c #4E3B28",
"S  c #332115",
"D  c #A96139",
"F  c #C57343",
"G  c #C57443",
"H  c #C27D4E",
"J  c #4B3926",
"K  c #352216",
"L  c #AC643A",
"P  c #C67443",
"I  c #C57444",
"U  c #E3A973",
"Y  c #A55630",
"T  c #83492A",
"R  c #3A2315",
"E  c #814326",
"W  c #7E4629",
"Q  c #CC6D3E",
"!  c #A5562F",
"~  c #814325",
"^  c #7D4629",
"/  c #CC6C3E",
"(  c #834929",
")  c #3C2415",
"_  c #834526",
"`  c #CC6C3D",
"'  c #CB6C3D",
"]  c #58321F",
"[  c #6E3920",
"{  c #6D3920",
"}  c #783F23",
"|  c #58341E",
" . c #332014",
".. c #63341D",
"X. c #793F23",
"o. c #55321D",
"O. c #342114",
"+. c #64341D",
"@. c #9B5533",
"#. c #372B23",
"$. c #2E1F13",
"%. c #2F2014",
"&. c #281D13",
"*. c #271D13",
"=. c #2E1F14",
"-. c #302114",
";. c #554031",
":. c #945B3C",
">. c #B96D3F",
",. c #BA6D3F",
"<. c #BA6E3F",
"1. c #B37447",
"2. c #3F2F1F",
"3. c #A05E36",
"4. c #B96E40",
"5. c #BA6E40",
"6. c #BA6F40",
"7. c #DDA774",
"8. c #653720",
"9. c #974F2C",
"0. c #A95A31",
"q. c #80492B",
"w. c #3C2416",
"e. c #854627",
"r. c #964F2C",
"t. c #CD7041",
"y. c #80472A",
"u. c #3B2315",
"i. c #804729",
"p. c #924B29",
"a. c #914B29",
"s. c #A4562F",
"d. c #59301D",
"f. c #773D22",
"g. c #773E22",
"h. c #854526",
"j. c #78462D",
"k. c #3C271B",
"l. c #6C381F",
"z. c #783E23",
"x. c #783E22",
"c. c #773E23",
"v. c #A45833",
/* pixels */
"  . X X X X X X X X X o o o O + @ # o o o o $ $ $ $ $ $ $ $ $ % ",
"& * * * * * = * = * = = = = - ; : > = = = = = = = = = = = = , < ",
"1 * * * * , , * , = = 2 2 2 - 3 4 5 2 2 2 2 2 2 2 2 2 2 2 2 2 < ",
"1 * * * * * * * , * * , 2 2 - 6 4 7 2 2 2 2 2 2 2 2 2 2 2 2 2 8 ",
"1 9 * * * * * * * * * * * , 0 6 4 q 2 2 = 2 2 2 2 2 2 2 2 2 2 8 ",
"w 9 e * * * * * * * * * * * 0 6 4 r , * = * = 2 2 = 2 2 2 2 2 t ",
"w e e e e * * * * * * * * * 0 y 4 r * , , * * , 2 = = 2 2 2 2 t ",
"w e e e e e e e e * * * * * 0 6 4 u * * * * * * * = = 2 2 = 2 8 ",
"w e e e e e e e e e e * * e 0 i 4 u * * * * * * * * , 2 = 2 2 t ",
"p a a a s s s a d a a a d s f g h j d d d d d d d d d k d d k l ",
"z x c c c c v b b n c c c c c n n c c c c c m b b n c c c c M N ",
"B V C C C C Z A S D C C C F G G G G G G G G H J K L P P P P I U ",
"w e e e e e Y T R E e e e e e e e e e e e e 0 W : > * e * * * Q ",
"w e e e e e ! T R ~ e e e e e e e e e e e e 0 ^ : > e e e * * / ",
"w e e e e e Y ( R ~ e e e e e e e e e e e e 0 ^ : > e e e e e / ",
"1 e e e e e Y T R ~ e e e e e e e e e e e e 0 ^ : > e e e e e / ",
"w e e e e e ! T R E e e e e e e e e e e e e 0 ^ ) _ e e e e e / ",
"w e e e e e ! T R E e e e e e e e e e e e e 0 ^ ) _ e e e e e / ",
"w e e e e e ! T R E e e e e e e e e e e e e 0 ^ : > e e e e e ` ",
"w e e e e e ! ( R E e e e e e e e e e e e e 0 ^ : _ e e e e e ' ",
"] [ { { { { } |  ...{ { { { { { { { { { { { X.o.O.+.{ { { { { @.",
"#.$.%.%.%.%.%.&.&.$.%.%.%.%.%.%.%.%.%.%.%.%.%.&.*.=.%.%.%.%.-.;.",
":.>.,.,.,.,.,.,.,.,.,.<.,.<.1.2.%.3.4.5.5.5.5.6.6.6.5.6.6.6.6.7.",
"8.9.9.9.9.9.9.9.9.9.9.9.9.9.0.q.w.e.9.9.9.9.9.9.9.r.r.r.r.r.r.t.",
"w e e e e e e e e e e e e e ! y.u.E e e e e e e e e e e e e e ' ",
"w e e e e e e e e e e e e e ! i.u.E e e e e e e e e e e e e e ' ",
"w p.e e e e e e e e e e e e ! i.u.E e e e e e e e e e e e e e ' ",
"w p.a.e e e e e e e e e e e ! i.u.E e e e e e e e e e e e e e ' ",
"w a.a.a.a.e e a.e e e e e e s.y.u.E e e e e e e e e e e e e e ' ",
"w a.a.a.a.a.a.e e a.e e e e s.i.u.E e e e e e e e e e e e e e ' ",
"w a.a.a.a.a.a.a.a.a.a.e a.e s.i.u.E e e e e e e e e e e e e e ' ",
"d.f.g.g.f.g.g.g.g.g.g.g.g.g.h.j.k.l.z.x.z.c.x.z.z.z.x.z.g.c.x.v."
};
